<svg width="74" height="74" viewBox="0 0 74 74" fill="none" xmlns="http://www.w3.org/2000/svg">
<path d="M0 37C0 16.5655 16.5655 0 37 0C57.4345 0 74 16.5655 74 37C74 57.4345 57.4345 74 37 74C16.5655 74 0 57.4345 0 37Z" fill="#F1F5F9"/>
<path d="M50.7413 10.3604H22.8555V73.0022H50.7413V10.3604Z" fill="#94A3B8"/>
<path d="M52.0991 7.40039H21.4922V10.359H52.0991V7.40039Z" fill="#CBD5E1"/>
<path d="M22.8519 44.8428H2.3457V73.0013H22.8519V44.8428Z" fill="#CBD5E1"/>
<path d="M71.2464 44.8428H50.7402V73.0013H71.2464V44.8428Z" fill="#CBD5E1"/>
<path d="M60.4407 63.3096H58.4004V68.6151H60.4407V63.3096Z" fill="white"/>
<path d="M63.5866 63.3096H61.5469V68.6151H63.5866V63.3096Z" fill="white"/>
<path d="M66.7376 63.3096H64.6973V68.6151H66.7376V63.3096Z" fill="white"/>
<path d="M69.8854 63.3096H67.8457V68.6151H69.8854V63.3096Z" fill="white"/>
<path d="M8.43357 41.6807H4.45508V44.8437H8.43357V41.6807Z" fill="#CBD5E1"/>
<path d="M14.5885 41.6807H10.6094V44.8437H14.5885V41.6807Z" fill="#CBD5E1"/>
<path d="M20.7448 41.6807H16.7656V44.8437H20.7448V41.6807Z" fill="#CBD5E1"/>
<path d="M56.8261 41.6807H52.8477V44.8437H56.8261V41.6807Z" fill="#CBD5E1"/>
<path d="M62.9824 41.6807H59.0039V44.8437H62.9824V41.6807Z" fill="#CBD5E1"/>
<path d="M69.1367 41.6807H65.1582V44.8437H69.1367V41.6807Z" fill="#CBD5E1"/>
<path d="M5.74932 63.3096H3.70898V68.6151H5.74932V63.3096Z" fill="white"/>
<path d="M8.8958 63.3096H6.85547V68.6151H8.8958V63.3096Z" fill="white"/>
<path d="M12.0462 63.3096H10.0059V68.6151H12.0462V63.3096Z" fill="white"/>
<path d="M15.1946 63.3096H13.1543V68.6151H15.1946V63.3096Z" fill="white"/>
<path d="M26.6927 12.7412H24.6523V18.0467H26.6927V12.7412Z" fill="white"/>
<path d="M30.3899 12.7412H28.3496V18.0467H30.3899V12.7412Z" fill="white"/>
<path d="M34.0853 12.7412H32.0449V18.0467H34.0853V12.7412Z" fill="white"/>
<path d="M37.7786 12.7412H35.7383V18.0461H37.7786V12.7412Z" fill="white"/>
<path d="M41.4778 12.7412H39.4375V18.0467H41.4778V12.7412Z" fill="white"/>
<path d="M45.1699 12.7412H43.1289V18.0467H45.1699V12.7412Z" fill="white"/>
<path d="M48.8659 12.7412H46.8262V18.0467H48.8659V12.7412Z" fill="white"/>
<path d="M26.6927 20.5312H24.6523V25.8368H26.6927V20.5312Z" fill="white"/>
<path d="M30.388 20.5312H28.3477V25.8368H30.388V20.5312Z" fill="white"/>
<path d="M34.0833 20.5293H32.043V25.8348H34.0833V20.5293Z" fill="white"/>
<path d="M37.7786 20.5293H35.7383V25.8348H37.7786V20.5293Z" fill="white"/>
<path d="M41.4778 20.5293H39.4375V25.8348H41.4778V20.5293Z" fill="white"/>
<path d="M45.1699 20.5312H43.1289V25.8368H45.1699V20.5312Z" fill="white"/>
<path d="M48.8659 20.5312H46.8262V25.8368H48.8659V20.5312Z" fill="white"/>
<path d="M26.6927 28.3252H24.6523V33.6307H26.6927V28.3252Z" fill="white"/>
<path d="M30.3899 28.3252H28.3496V33.6307H30.3899V28.3252Z" fill="white"/>
<path d="M34.0846 28.3252H32.0449V33.6307H34.0846V28.3252Z" fill="white"/>
<path d="M37.7806 28.3252H35.7402V33.6307H37.7806V28.3252Z" fill="white"/>
<path d="M41.4778 28.3252H39.4375V33.6307H41.4778V28.3252Z" fill="white"/>
<path d="M45.1699 28.3252H43.1289V33.6307H45.1699V28.3252Z" fill="white"/>
<path d="M48.8659 28.3252H46.8262V33.6307H48.8659V28.3252Z" fill="white"/>
<path d="M26.6966 36.1162H24.6562V41.4217H26.6966V36.1162Z" fill="white"/>
<path d="M30.3899 36.1162H28.3496V41.4217H30.3899V36.1162Z" fill="white"/>
<path d="M34.0866 36.1162H32.0469V41.4224H34.0866V36.1162Z" fill="white"/>
<path d="M37.7806 36.1162H35.7402V41.4211H37.7806V36.1162Z" fill="white"/>
<path d="M41.4778 36.1162H39.4375V41.4224H41.4778V36.1162Z" fill="white"/>
<path d="M45.1712 36.1162H43.1309V41.4217H45.1712V36.1162Z" fill="white"/>
<path d="M48.8659 36.1162H46.8262V41.4217H48.8659V36.1162Z" fill="white"/>
<path d="M26.6927 43.9072H24.6523V49.2127H26.6927V43.9072Z" fill="white"/>
<path d="M30.3899 43.9072H28.3496V49.2127H30.3899V43.9072Z" fill="white"/>
<path d="M34.0846 43.9072H32.0449V49.2134H34.0846V43.9072Z" fill="white"/>
<path d="M37.7806 43.9072H35.7402V49.2127H37.7806V43.9072Z" fill="white"/>
<path d="M41.4778 43.9072H39.4375V49.2134H41.4778V43.9072Z" fill="white"/>
<path d="M45.1692 43.9072H43.1289V49.2134H45.1692V43.9072Z" fill="white"/>
<path d="M48.8659 43.9072H46.8262V49.2127H48.8659V43.9072Z" fill="white"/>
<path d="M26.6927 51.7021H24.6523V57.007H26.6927V51.7021Z" fill="white"/>
<path d="M30.3899 51.7021H28.3496V57.007H30.3899V51.7021Z" fill="white"/>
<path d="M34.0827 51.7012H32.043V57.0067H34.0827V51.7012Z" fill="white"/>
<path d="M37.7806 51.7012H35.7402V57.0067H37.7806V51.7012Z" fill="white"/>
<path d="M41.4778 51.7012H39.4375V57.0067H41.4778V51.7012Z" fill="white"/>
<path d="M45.1692 51.7012H43.1289V57.0067H45.1692V51.7012Z" fill="white"/>
<path d="M48.8659 51.7012H46.8262V57.006H48.8659V51.7012Z" fill="white"/>
<path d="M21.4928 46.8184H3.70703V49.2674H21.4928V46.8184Z" fill="#94A3B8"/>
<path d="M21.4908 50.8174H3.70508V53.2658H21.4908V50.8174Z" fill="#94A3B8"/>
<path d="M21.4928 54.8184H3.70703V57.2668H21.4928V54.8184Z" fill="#94A3B8"/>
<path d="M21.4928 58.8193H3.70703V61.2684H21.4928V58.8193Z" fill="#94A3B8"/>
<path d="M69.8873 46.8184H52.1016V49.2674H69.8873V46.8184Z" fill="#94A3B8"/>
<path d="M69.8847 50.8174H52.0996V53.2658H69.8847V50.8174Z" fill="#94A3B8"/>
<path d="M69.8853 54.8184H52.0996V57.2668H69.8853V54.8184Z" fill="#94A3B8"/>
<path d="M69.8853 58.8193H52.0996V61.2684H69.8853V58.8193Z" fill="#94A3B8"/>
<path d="M55.7319 62.5947H37.0106H36.5853H17.8647L12.3555 68.1716V73.0008H36.5853H37.0106H61.2411V68.1716L55.7319 62.5947Z" fill="#F1F5F9"/>
<path d="M28.6616 63.8193H27.0293V73.0012H28.6616V63.8193Z" fill="#94A3B8"/>
<path d="M46.5665 63.8193H44.9336V73.0012H46.5665V63.8193Z" fill="#94A3B8"/>
<path d="M24.3674 65.1475H19.0625V70.453H24.3674V65.1475Z" fill="white"/>
<path d="M54.4637 65.1475H49.1582V70.453H54.4637V65.1475Z" fill="white"/>
<path d="M47.8507 59.4336H25.6777V63.8208H47.8507V59.4336Z" fill="white"/>
<path d="M30.676 68.076C30.412 68.076 30.1853 68.0293 29.996 67.936C29.8067 67.8427 29.652 67.7213 29.532 67.572C29.4147 67.4227 29.328 67.26 29.272 67.084C29.216 66.908 29.188 66.7387 29.188 66.576V66.488C29.188 66.3067 29.216 66.128 29.272 65.952C29.3307 65.776 29.42 65.616 29.54 65.472C29.66 65.328 29.812 65.2133 29.996 65.128C30.1827 65.04 30.4027 64.996 30.656 64.996C30.92 64.996 31.1493 65.044 31.344 65.14C31.5413 65.2333 31.6987 65.3667 31.816 65.54C31.9333 65.7107 32.004 65.9107 32.028 66.14H31.456C31.4347 66.0067 31.3867 65.8947 31.312 65.804C31.24 65.7107 31.148 65.6413 31.036 65.596C30.924 65.548 30.7973 65.524 30.656 65.524C30.512 65.524 30.384 65.5493 30.272 65.6C30.16 65.648 30.0667 65.7173 29.992 65.808C29.9173 65.8987 29.86 66.0053 29.82 66.128C29.7827 66.2507 29.764 66.3867 29.764 66.536C29.764 66.68 29.7827 66.8133 29.82 66.936C29.86 67.0587 29.9187 67.1667 29.996 67.26C30.0733 67.3507 30.168 67.4213 30.28 67.472C30.3947 67.5227 30.5267 67.548 30.676 67.548C30.8947 67.548 31.0787 67.4947 31.228 67.388C31.38 67.2787 31.472 67.1267 31.504 66.932H32.076C32.0493 67.14 31.9787 67.3307 31.864 67.504C31.7493 67.6773 31.592 67.816 31.392 67.92C31.192 68.024 30.9533 68.076 30.676 68.076ZM33.5953 68.076C33.4033 68.076 33.234 68.0453 33.0873 67.984C32.9406 67.9227 32.8166 67.84 32.7153 67.736C32.614 67.6293 32.5366 67.5093 32.4833 67.376C32.4326 67.2427 32.4073 67.104 32.4073 66.96V66.876C32.4073 66.7267 32.434 66.5853 32.4873 66.452C32.5433 66.316 32.622 66.196 32.7233 66.092C32.8273 65.9853 32.9526 65.9027 33.0993 65.844C33.246 65.7827 33.4113 65.752 33.5953 65.752C33.7793 65.752 33.9446 65.7827 34.0913 65.844C34.238 65.9027 34.362 65.9853 34.4633 66.092C34.5673 66.196 34.646 66.316 34.6993 66.452C34.7526 66.5853 34.7793 66.7267 34.7793 66.876V66.96C34.7793 67.104 34.7526 67.2427 34.6993 67.376C34.6486 67.5093 34.5726 67.6293 34.4713 67.736C34.37 67.84 34.246 67.9227 34.0993 67.984C33.9526 68.0453 33.7846 68.076 33.5953 68.076ZM33.5953 67.6C33.7313 67.6 33.846 67.5707 33.9393 67.512C34.0326 67.4507 34.1033 67.3693 34.1513 67.268C34.1993 67.164 34.2233 67.0467 34.2233 66.916C34.2233 66.7827 34.198 66.6653 34.1473 66.564C34.0993 66.46 34.0273 66.3787 33.9313 66.32C33.838 66.2587 33.726 66.228 33.5953 66.228C33.4646 66.228 33.3513 66.2587 33.2553 66.32C33.162 66.3787 33.09 66.46 33.0393 66.564C32.9886 66.6653 32.9633 66.7827 32.9633 66.916C32.9633 67.0467 32.9873 67.164 33.0353 67.268C33.086 67.3693 33.158 67.4507 33.2513 67.512C33.3446 67.5707 33.4593 67.6 33.5953 67.6ZM35.3062 68V65.828H35.7462V66.76H35.7062C35.7062 66.5413 35.7342 66.3587 35.7902 66.212C35.8462 66.0627 35.9288 65.9507 36.0382 65.876C36.1502 65.7987 36.2888 65.76 36.4542 65.76H36.4782C36.6462 65.76 36.7848 65.7987 36.8942 65.876C37.0062 65.9507 37.0888 66.0627 37.1422 66.212C37.1982 66.3587 37.2262 66.5413 37.2262 66.76H37.0862C37.0862 66.5413 37.1142 66.3587 37.1702 66.212C37.2288 66.0627 37.3128 65.9507 37.4222 65.876C37.5342 65.7987 37.6728 65.76 37.8382 65.76H37.8622C38.0302 65.76 38.1702 65.7987 38.2822 65.876C38.3942 65.9507 38.4782 66.0627 38.5342 66.212C38.5928 66.3587 38.6222 66.5413 38.6222 66.76V68H38.0662V66.708C38.0662 66.572 38.0315 66.464 37.9622 66.384C37.8928 66.3013 37.7942 66.26 37.6662 66.26C37.5382 66.26 37.4355 66.3027 37.3582 66.388C37.2808 66.4707 37.2422 66.5827 37.2422 66.724V68H36.6862V66.708C36.6862 66.572 36.6515 66.464 36.5822 66.384C36.5128 66.3013 36.4142 66.26 36.2862 66.26C36.1582 66.26 36.0555 66.3027 35.9782 66.388C35.9008 66.4707 35.8622 66.5827 35.8622 66.724V68H35.3062ZM39.2563 68.8V65.828H39.6963V66.764L39.6283 66.76C39.639 66.5387 39.6843 66.3533 39.7643 66.204C39.847 66.0547 39.9563 65.944 40.0923 65.872C40.2283 65.7973 40.3803 65.76 40.5483 65.76C40.703 65.76 40.8416 65.788 40.9643 65.844C41.0896 65.9 41.1963 65.9787 41.2843 66.08C41.375 66.1813 41.4443 66.3 41.4923 66.436C41.5403 66.5693 41.5643 66.7133 41.5643 66.868V66.952C41.5643 67.1093 41.5403 67.256 41.4923 67.392C41.447 67.5253 41.379 67.644 41.2883 67.748C41.2003 67.8493 41.0936 67.9293 40.9683 67.988C40.843 68.044 40.703 68.072 40.5483 68.072C40.3856 68.072 40.2363 68.0387 40.1003 67.972C39.967 67.9027 39.859 67.7973 39.7763 67.656C39.6936 67.512 39.647 67.3267 39.6363 67.1L39.8123 67.368V68.8H39.2563ZM40.4083 67.604C40.5283 67.604 40.6323 67.5747 40.7203 67.516C40.811 67.4573 40.8816 67.376 40.9323 67.272C40.983 67.1653 41.0083 67.0453 41.0083 66.912C41.0083 66.7733 40.983 66.6533 40.9323 66.552C40.8816 66.4507 40.811 66.372 40.7203 66.316C40.6323 66.2573 40.5283 66.228 40.4083 66.228C40.299 66.228 40.1976 66.252 40.1043 66.3C40.0136 66.348 39.939 66.4187 39.8803 66.512C39.8243 66.6053 39.7963 66.7173 39.7963 66.848V67.008C39.7963 67.1333 39.8256 67.24 39.8843 67.328C39.943 67.416 40.019 67.484 40.1123 67.532C40.2056 67.58 40.3043 67.604 40.4083 67.604ZM43.4092 68V67.356H43.3172V66.64C43.3172 66.5147 43.2865 66.4213 43.2252 66.36C43.1639 66.2987 43.0692 66.268 42.9412 66.268C42.8745 66.268 42.7945 66.2693 42.7012 66.272C42.6079 66.2747 42.5132 66.2787 42.4172 66.284C42.3239 66.2867 42.2399 66.2907 42.1652 66.296V65.824C42.2265 65.8187 42.2959 65.8133 42.3732 65.808C42.4505 65.8027 42.5292 65.8 42.6092 65.8C42.6919 65.7973 42.7692 65.796 42.8412 65.796C43.0652 65.796 43.2505 65.8253 43.3972 65.884C43.5465 65.9427 43.6585 66.0347 43.7332 66.16C43.8105 66.2853 43.8492 66.4493 43.8492 66.652V68H43.4092ZM42.7092 68.056C42.5519 68.056 42.4132 68.028 42.2932 67.972C42.1759 67.916 42.0839 67.836 42.0172 67.732C41.9532 67.628 41.9212 67.5027 41.9212 67.356C41.9212 67.196 41.9599 67.0653 42.0372 66.964C42.1172 66.8627 42.2279 66.7867 42.3692 66.736C42.5132 66.6853 42.6812 66.66 42.8732 66.66H43.3772V66.992H42.8652C42.7372 66.992 42.6385 67.024 42.5692 67.088C42.5025 67.1493 42.4692 67.2293 42.4692 67.328C42.4692 67.4267 42.5025 67.5067 42.5692 67.568C42.6385 67.6293 42.7372 67.66 42.8652 67.66C42.9425 67.66 43.0132 67.6467 43.0772 67.62C43.1439 67.5907 43.1985 67.5427 43.2412 67.476C43.2865 67.4067 43.3119 67.3133 43.3172 67.196L43.4532 67.352C43.4399 67.504 43.4025 67.632 43.3412 67.736C43.2825 67.84 43.1999 67.92 43.0932 67.976C42.9892 68.0293 42.8612 68.056 42.7092 68.056ZM44.4847 68V65.828H44.9247V66.76H44.8847C44.8847 66.5387 44.9141 66.3547 44.9727 66.208C45.0314 66.0587 45.1181 65.9467 45.2327 65.872C45.3501 65.7973 45.4954 65.76 45.6687 65.76H45.6927C45.9514 65.76 46.1474 65.844 46.2807 66.012C46.4141 66.1773 46.4807 66.4253 46.4807 66.756V68H45.9247V66.708C45.9247 66.5747 45.8861 66.4667 45.8087 66.384C45.7341 66.3013 45.6301 66.26 45.4967 66.26C45.3607 66.26 45.2501 66.3027 45.1647 66.388C45.0821 66.4707 45.0407 66.5827 45.0407 66.724V68H44.4847ZM47.0389 68.856V68.38H47.4469C47.5242 68.38 47.5882 68.3693 47.6389 68.348C47.6922 68.3293 47.7362 68.2973 47.7709 68.252C47.8055 68.2093 47.8322 68.1493 47.8509 68.072L48.4349 65.828H48.9669L48.3229 68.192C48.2802 68.3547 48.2202 68.484 48.1429 68.58C48.0655 68.6787 47.9655 68.7493 47.8429 68.792C47.7229 68.8347 47.5735 68.856 47.3949 68.856H47.0389ZM47.7149 67.952V67.512H48.1789V67.952H47.7149ZM47.5269 67.952L46.8229 65.828H47.3829L48.0509 67.952H47.5269Z" fill="#94A3B8"/>
<path d="M41.481 63.8193H32.0488V73.0012H41.481V63.8193Z" fill="white"/>
<path d="M74 72.1855H0V73.8178H74V72.1855Z" fill="#94A3B8"/>
</svg>
