 <svg
      width="64"
      height="64"
      viewBox="0 0 64 64"
      fill="none"
      xmlns="http://www.w3.org/2000/svg"
    >
      <rect width="64" height="64" rx="12" fill="#234D64" />
      <g clip-path="url(#clip0_246_15541)">
        <path
          d="M32 7.96484H8V35.0375L8.40117 35.4879C14.9084 31.434 21.2699 28.5946 22.6534 27.9873C24.8402 22.5006 27.8043 19.2872 31.4731 18.4406C36.3465 17.3175 40.7594 20.7471 41.7749 21.6098C44.1357 21.4248 45.9596 22.1738 47.0726 24.3013C45.4066 25.1097 40.5111 27.7048 39.8917 29.4462C39.2895 31.1665 44.5972 46.4996 27.2784 55.1504C26.6329 55.4762 25.9754 55.7688 25.3188 56.0352H32C45.2377 56.0352 56 45.2669 56 32.0352C56 18.8036 45.2377 7.96484 32 7.96484ZM35.8267 24.1495C35.8267 22.5971 33.471 22.5971 33.471 24.1495C33.471 25.7019 35.8267 25.7069 35.8267 24.1495ZM8 56.0362H8.01609L8 55.998V56.0362Z"
          fill="white"
        />
      </g>
      <defs>
        <clipPath id="clip0_246_15541">
          <rect
            width="48"
            height="48.0714"
            fill="white"
            transform="translate(8 7.96484)"
          />
        </clipPath>
      </defs>
    </svg>